<svg xmlns="http://www.w3.org/2000/svg" viewBox="0 0 24 24" width="192" height="192" fill="currentColor">
  <path
    d="M19.971 14.583c.014-.193.029-.386.029-.583 0-.513-.053-1.014-.145-1.5.092-.486.145-.987.145-1.5a8 8 0 00-16 0c0 .513.053 1.014.145 1.5A8.056 8.056 0 004 14c0 .197.015.39.029.583A1.495 1.495 0 004.5 17.5c.103 0 .203-.01.3-.03C6.093 20.148 8.827 22 12 22s5.907-1.852 7.2-4.53A1.5 1.5 0 0021 16c0-.663-.433-1.219-1.029-1.417z"
    opacity=".35" />
  <path d="M21 18h-2v-6h2a2 2 0 012 2v2a2 2 0 01-2 2zM3 12h2v6H3a2 2 0 01-2-2v-2a2 2 0 012-2z" />
  <path d="M5 13v-2a7 7 0 1114 0v2h2v-2c0-4.971-4.029-9-9-9s-9 4.029-9 9v2h2z" />
</svg>
