<?xml version="1.0" encoding="utf-8"?>
<svg xmlns="http://www.w3.org/2000/svg" viewBox="0 0 24 24" width="192" height="192" fill="currentColor">
  <path
    d="M19.672,5.672l-2.343-2.343c-1.562-1.562-4.095-1.562-5.657,0L7.5,7.5l8,8l4.172-4.172C21.234,9.766,21.234,7.234,19.672,5.672z" />
  <path
    d="M7.5,7.5l-4.172,4.172c-1.562,1.562-1.562,4.095,0,5.657l2.343,2.343c1.562,1.562,4.095,1.562,5.657,0L15.5,15.5L7.5,7.5z"
    opacity=".35" />
  <path
    d="M18.5,18H13l-1.672,1.672c-0.992,0.992-2.374,1.349-3.652,1.081C7.913,20.908,8.196,21,8.5,21h10 c0.829,0,1.5-0.671,1.5-1.5S19.329,18,18.5,18z" />
</svg>
