<svg xmlns="http://www.w3.org/2000/svg" viewBox="0 0 24 24" width="192" height="192" fill="currentColor">
  <path
    d="M8 14.134c0-1.239.797-2.344 1.991-2.761L16 9.277V3.956c0-1.351-1.37-2.295-2.673-1.84L3.991 5.374C2.797 5.79 2 6.896 2 8.134v5.91c0 1.352 1.37 2.295 2.673 1.84L8 14.723v-.589z"
    opacity=".35" />
  <path
    d="M8 14.134c0-1.239.797-2.344 1.991-2.761L19 8.23V6.956c0-1.351-1.37-2.295-2.673-1.84L6.991 8.374C5.797 8.79 5 9.896 5 11.134v5.91c0 1.352 1.37 2.295 2.673 1.84L8 18.77v-4.636z" />
  <path
    d="M20.009 18.626l-9.336 3.258C9.37 22.339 8 21.396 8 20.044v-5.91c0-1.239.797-2.344 1.991-2.761l9.336-3.258C20.63 7.661 22 8.604 22 9.956v5.91c0 1.238-.797 2.344-1.991 2.76z"
    opacity=".35" />
</svg>
