<svg xmlns="http://www.w3.org/2000/svg" viewBox="0 -2 24 24" width="192" height="192" fill="currentColor">
  <path d="M19 20H5a3 3 0 01-3-3V5h17a3 3 0 013 3v9a3 3 0 01-3 3z" opacity=".35" />
  <path d="M11 5H2V4a2 2 0 012-2h4.558a2 2 0 011.897 1.368L11 5z" />
  <path fill-rule="evenodd"
    d="M16.5 11.7A2.7 2.7 0 0013.8 9c-.695 0-1.322.27-1.8.701A2.679 2.679 0 0010.2 9a2.7 2.7 0 00-2.7 2.7c0 .762.318 1.448.827 1.939l2.699 2.705c.538.538 1.41.538 1.948 0l2.699-2.705A2.685 2.685 0 0016.5 11.7z"
    clip-rule="evenodd" />
</svg>
