<svg xmlns="http://www.w3.org/2000/svg" viewBox="0 0 24 24" width="192" height="192" fill="currentColor">
  <path
    d="M10 10.464a1.235 1.235 0 011.067-.082.706.706 0 00.796-.215 4.97 4.97 0 00.81-1.402c.111-.294.006-.616-.234-.819a1.236 1.236 0 01.001-1.892.738.738 0 00.234-.819 5.004 5.004 0 00-.81-1.402.709.709 0 00-.796-.215 1.24 1.24 0 01-1.673-.97.697.697 0 00-.572-.578 4.845 4.845 0 00-1.646 0 .697.697 0 00-.572.578 1.235 1.235 0 01-1.672.97.706.706 0 00-.796.214c-.342.417-.617.89-.811 1.403a.739.739 0 00.234.819 1.234 1.234 0 010 1.892.739.739 0 00-.234.819c.194.513.469.986.81 1.402a.709.709 0 00.796.215 1.235 1.235 0 011.672.969.699.699 0 00.571.579 4.886 4.886 0 001.648 0 .699.699 0 00.571-.579 1.24 1.24 0 01.606-.887z"
    opacity=".35" />
  <path d="M8 5a2 2 0 10-.001 3.999A2 2 0 008 5z" />
  <path
    d="M19.6 11.771a.988.988 0 01.854-.065.566.566 0 00.637-.172 3.99 3.99 0 00.648-1.122.587.587 0 00-.187-.655.989.989 0 010-1.514.589.589 0 00.187-.655 3.99 3.99 0 00-.648-1.122.565.565 0 00-.637-.172.992.992 0 01-1.338-.775.559.559 0 00-.457-.463 3.864 3.864 0 00-1.318 0 .559.559 0 00-.457.463.988.988 0 01-1.338.775.566.566 0 00-.637.172 3.99 3.99 0 00-.648 1.122.587.587 0 00.187.655.989.989 0 010 1.514.589.589 0 00-.187.655c.155.411.375.789.648 1.122a.565.565 0 00.637.172.992.992 0 011.338.775.559.559 0 00.457.463 3.864 3.864 0 001.318 0 .559.559 0 00.457-.463.99.99 0 01.484-.71z"
    opacity=".35" />
  <path d="M18 7.4a1.6 1.6 0 100 3.2 1.6 1.6 0 000-3.2z" />
  <path
    d="M14 20.464a1.235 1.235 0 011.067-.082.706.706 0 00.796-.215 4.97 4.97 0 00.81-1.402c.111-.294.006-.616-.234-.819a1.236 1.236 0 01.001-1.892.738.738 0 00.234-.819 5.004 5.004 0 00-.81-1.402.709.709 0 00-.796-.215 1.235 1.235 0 01-1.672-.969.699.699 0 00-.571-.579 4.886 4.886 0 00-1.648 0 .699.699 0 00-.571.579 1.24 1.24 0 01-1.673.969.706.706 0 00-.796.215 4.97 4.97 0 00-.81 1.402c-.111.294-.006.616.234.819a1.236 1.236 0 01-.001 1.892.738.738 0 00-.234.819c.194.513.469.986.81 1.402a.709.709 0 00.796.215 1.235 1.235 0 011.672.969.699.699 0 00.571.579 4.886 4.886 0 001.648 0 .699.699 0 00.571-.579 1.24 1.24 0 01.606-.887z"
    opacity=".35" />
  <path d="M12 15a2 2 0 10-.001 3.999A2 2 0 0012 15z" />
</svg>
