<svg xmlns="http://www.w3.org/2000/svg" viewBox="0 0 1750.71 276.46" fill="currentColor">
  <path
    d="M341.88 249.91c-35.76-13.29-43.19-65.88-49.96-99.5-5.66-28.12-9.32-56.78-13.33-85.18l-52.5 166.99c-8.79 17.49-25.98 28.84-45.97 28-23.3-.97-36.29-15.7-44.99-36.03s-14.24-43.77-21.54-62.97c-.59-1.77-2.01-2.92-3.16-.36-15.28 30.89-14.82 83.11-55.57 91.12-16.89 3.32-42.18-2.88-51.9-17.68-4.04-6.32-3.01-12.49-2.31-14.53 2.71-7.88 14.91-11.55 21.69-8.8 2.87 1.16 7.53 7.55 11.33 9.67 4.3 2.41 11.45 3.65 16.22 2.54 0 0 3.98-1.93 5.78-3.39 3.58-2.9 8.43-11.84 9.96-16.04 8.36-22.92 13.84-48.06 21.7-71.3 2.39-7.07 4.84-18.84 11.39-22.61 9.19-5.29 21.59-5.25 29.42 2.34 9.05 8.77 17.77 47.44 22.16 61.83 3.99 18.82 5.49 4.65 24.03 1.45 5.86-1.01 13.75-.5 19.47 1.05 3.09.83 8.41 3.55 10.46 4.46 2.25.98 4.29 3.02 7.3-5.53 0 0 37.78-124.52 50.6-166.15C264.51 1.64 275.97-.79 285.12.2c8.32.89 16.32 8.01 18.23 15.77 11.49 57.68 13.45 121.76 30.75 177.25 6.71 21.53 13.98 32.09 38.74 28.75 10.59-1.43 28.79-16.03 36.18-3.66 1.34 2.24 6.02 17.18 5.42 19.21-.3 1.03-.98 1.66-1.89 2.17-3.28 1.83-14.03 5.45-18.18 6.82-15.06 4.97-37.25 9.07-52.49 3.41zm-162.53-48.45c-18.18 2.84-16.02 32.18 4.6 30.7 20.85-1.49 18.24-34.27-4.6-30.7zM677.6 234.23h-27l-10.94-46.56-83.03-.47-24.53 47.03h-26.5c.66-2.74 50.54-96.07 72.16-138.33 3.74-7.3 7.77-15.87 11.27-23.27.46-1.04 3.53-1.16 6.06-1.41 9.85-.99 40.05-.04 40.05-.04s5.5.36 6.28 2.72l36.17 160.33zm-108-69h65l-16.88-72.42-9.66-.14-38.45 72.56zM1597.6 212.23c1.98 1.99-7.39 18.78-8.68 22.04-21.34-1.38-44.71 1.74-65.81-.05-15.9-1.35-25.43-9.25-24.52-26.59 8.5-29.96-3.54-82.7 39.46-86.42 10.6-.92 46.62-1.26 55.53 1.54 7.06 2.22 13.02 7.96 14.57 15.44 1.34 6.51-1.85 32.47-4.67 38.44-3.49 7.38-11.98 9.07-19.4 9.6-18.45 1.33-38.26-1.08-56.86.14-3 1.03-4.75 19.8-2.53 23.27 1.04 1.62 6.51 4.23 8.46 4.54 9.94 1.56 32.09.54 42.98.1 3.11-.13 20.7-2.8 21.46-2.04zm-68-45h50.5c2.02 0 5.78-19.65 1.47-23.47-4.05-3.59-26.24-2.98-32.51-2.58-19.71 1.26-17.43 9-19.45 26.05zM878.1 121.23s18.07 59.62 25.91 78.09c1.02 2.4 4.23 1.09 6.05-1.13 5.91-7.23 44.04-76.96 44.04-76.96h25.5c-2.37 6.05-58.97 106.2-85.01 148.49-2.97 3.37-5.86 4.93-11.61 5.39-7.34.86-20.73 1.72-27.94 1.16-1.31-.1-4.07.12-4.4-1.62-.28-1.47 4.5-16.33 5.09-19.29 1.39-.89 14.08.27 17.38-.12 8.01-.94 16.99-19.3 16.56-23.49l-37.09-110.53h25.5zM707.6 234.23s16.95-109.94 19.66-112.84c6.7-.66 64.05-1.19 73.73-.06 13.77 1.61 23.04 11.33 22.62 25.35l-13.01 87.54h-25s8.21-49.3 10.87-73.63c1.02-9.29 2.3-16.82-9.49-18.26-4.32-.53-33.67-1.62-40.45.32-7.47 22.12-15.43 91.57-15.43 91.57h-23.5zM1634.6 234.23l15.19-109.31c1.41-4.8 21.63-4.02 25.96-4.11 1.41-.03 42.31-.57 52.24.52 15.43 1.7 23.85 11.83 22.59 27.39l-12.98 85.51h-24c2.67-19.08 5.33-37.92 7.99-56.51.28-1.96.81-4.24 1.04-6.21 1.36-11.56 7.81-27.23-8.64-29.17-12.56-1.47-27.47.75-40.25.02l-14.58 91.77-24.56.09zM1363.6 121.23l-6.71 20.29-53.7-.2c-9.13.81-10.66 13.09-9.64 20.46.6 4.31 3.49 5 7.55 5.45 16.65 1.87 54.85-7.36 54.53 20.45-.07 5.55-3.73 26.33-5.85 31.23-4.68 10.87-16.53 15.31-23.68 15.31h-67c-2.38 0 .42-10.09.99-12.01.67-2.26 2.12-8.13 4.17-8.83 16.99-1.03 36 2.74 52.84.84 10.19-1.15 11.86-6 12.48-15.51.48-7.32.73-10.79-7.43-11.54-13.08-1.19-48.45 4.82-53.08-12.92-1.92-7.37.93-29.76 4.35-36.71 1.31-2.67 5.73-9.99 11.5-12.98 6.12-3.18 12.5-3.34 13.18-3.34h65.5zM1103.6 71.23l-21 141h82l-9.5 22h-100.5l23-163h26zM1388.6 141.23c.32-1.4 5.09-16.89 5.96-19.54 15.2-.95 20.64-.97 22.6-1.4 1.01-3.96 3.9-28.38 4.41-34.58 5.24.28 23.91.64 23.91.64l-3.88 34.87h37l-6.98 20.52-32.97.54-8.92 56.57c-4.8 23.57 21.67 11.84 34.87 14.38 1.53 1.53-6.62 18.78-8.66 20.83-11.64-.29-24.37 1.45-35.73-.94-10.21-2.15-15.28-7.77-16.5-18.5 1.43-24.59 7.34-48.86 9.89-73.4h-25zM1234.6 121.23c-6 37.57-17.5 113-17.5 113h-23.5l18.5-113h22.5zM1242.6 71.23c-.21 1.1-3.21 22.76-3.47 24.03-5.07.34-24.54.97-24.54.97l3-25h25z" />
</svg>
