<svg xmlns="http://www.w3.org/2000/svg" viewBox="0 0 24 24" width="192" height="192" fill="currentColor">
  <path
    d="M15.501 22a1.5 1.5 0 01-1.375-.899L8.5 8.242 2.874 21.101a1.5 1.5 0 11-2.748-1.202l7-16a1.5 1.5 0 012.748 0l7 16A1.5 1.5 0 0115.501 22z" />
  <path d="M13.5 18h-10c-.829 0-.5-.671-.5-1.5S3.671 15 4.5 15h8c.829 0 1.5.671 1.5 1.5s.329 1.5-.5 1.5z" />
  <path d="M21.5 4H20V2.5a1.5 1.5 0 10-3 0V4h-1.5a1.5 1.5 0 100 3H17v1.5a1.5 1.5 0 103 0V7h1.5a1.5 1.5 0 100-3z"
    opacity=".35" />
</svg>