<svg xmlns="http://www.w3.org/2000/svg" viewBox="0 0 24 24" width="192" height="192" fill="currentColor">
  <path
    d="M6 21H4a2 2 0 01-2-2v-1a2 2 0 012-2h2a2 2 0 012 2v1a2 2 0 01-2 2zM13 21h-2a2 2 0 01-2-2v-4a2 2 0 012-2h2a2 2 0 012 2v4a2 2 0 01-2 2zM20 21h-2a2 2 0 01-2-2v-7a2 2 0 012-2h2a2 2 0 012 2v7a2 2 0 01-2 2z"
    opacity=".35" />
  <path
    d="M21 2.504A.502.502 0 0020.496 2l-3.041.014a.456.456 0 00-.32.779l3.073 3.073a.456.456 0 00.779-.32L21 2.504z" />
  <path
    d="M4 12a.999.999 0 01-.707-1.707l3-3a.999.999 0 011.023-.242l2.414.805 2.563-2.563a1.001 1.001 0 011.023-.242l2.414.805 2.563-2.563a.999.999 0 111.414 1.414l-3 3a.999.999 0 01-1.023.242l-2.414-.805-2.563 2.563a1.001 1.001 0 01-1.023.242L7.27 9.144l-2.563 2.563A.997.997 0 014 12z" />
</svg>
