<svg xmlns="http://www.w3.org/2000/svg" data-name="Слой 1" viewBox="0 0 24 24" width="192" height="192">
  <path
    d="M14.653 11.357l-3.571-2.25a.686.686 0 00-.72-.01.757.757 0 00-.362.653v4.5a.757.757 0 00.362.653.687.687 0 00.72-.01l3.571-2.25a.769.769 0 000-1.286z"
    fill="currentColor" />
  <path
    d="M11.985 2A9.963 9.963 0 007.3 3.18l-.74-.741A1.5 1.5 0 004 3.5v3c0 .036.008.07.011.106v.039a1.388 1.388 0 00.049.255l.007.024a1.48 1.48 0 00.095.245l.014.026a1.518 1.518 0 00.14.22l.025.031a1.473 1.473 0 00.178.184l.016.017c.007.006.016.01.024.016a1.469 1.469 0 00.2.136l.064.035a1.434 1.434 0 00.193.082c.031.011.061.02.092.029a1.494 1.494 0 00.179.037c.042.006.083.01.124.013S5.469 8 5.5 8h3a1.5 1.5 0 001.061-2.56A7 7 0 115 12.416a1.5 1.5 0 00-3 .178A10 10 0 1011.985 2z"
    opacity=".35" fill="currentColor" />
</svg>