<svg xmlns="http://www.w3.org/2000/svg" viewBox="0 0 24 24" width="192" height="192" fill="currentColor">
  <path d="M18 21H6a3 3 0 01-3-3V6a2 2 0 012-2h14a2 2 0 012 2v12a3 3 0 01-3 3z" opacity=".35" />
  <path
    d="M21.895 9.553L21 7.764V6a3 3 0 00-3-3H6a3 3 0 00-3 3v1.764l-.895 1.789a1 1 0 00.229 1.193C2.478 10.874 3.787 12 5.5 12c1.108 0 2.048-.472 2.612-.839.775.334 2.22.839 3.888.839s3.113-.505 3.888-.839c.564.367 1.504.839 2.612.839 1.713 0 3.022-1.126 3.166-1.254a1 1 0 00.229-1.193zM6 7a1 1 0 110-2 1 1 0 010 2zm3 0a1 1 0 110-2 1 1 0 010 2z" />
</svg>