<svg xmlns="http://www.w3.org/2000/svg" viewBox="0 0 24 24" width="192" height="192">
  <path
    d="M19 3h-5a3 3 0 013 3v2.369c0 .76-.758 1.278-1.471 1.016C14.968 9.179 14.374 9 14 9a3 3 0 100 6c.374 0 .968-.179 1.529-.385A1.089 1.089 0 0117 15.631V18a3 3 0 01-3 3h5a3 3 0 003-3V6a3 3 0 00-3-3z"
    fill="currentColor" />
  <path
    d="M5 3a3 3 0 00-3 3v2.369c0 .76.758 1.278 1.471 1.016C4.032 9.179 4.626 9 5 9a3 3 0 110 6c-.374 0-.968-.179-1.529-.385A1.089 1.089 0 002 15.631V18a3 3 0 003 3h13V3H5z"
    opacity=".35" fill="currentColor" />
</svg>