<svg xmlns="http://www.w3.org/2000/svg" viewBox="0 0 24 24" width="192" height="192" fill="currentColor">
  <path
    d="M19.483,8.192C18.345,5.161,15.429,3,12,3c-4.112,0-7.496,3.104-7.945,7.095C1.746,10.538,0,12.562,0,15 c0,2.761,2.239,5,5,5h13c3.314,0,6-2.686,6-6C24,11.199,22.078,8.854,19.483,8.192z"
    opacity=".35" />
  <path
    d="M11.5,9v3.211C11.193,12.077,10.856,12,10.5,12C9.119,12,8,13.119,8,14.5S9.119,17,10.5,17s2.5-1.119,2.5-2.5V9 C13,9,11.5,8.448,11.5,9z" />
  <path d="M12,10.5h2c1.105,0,2-0.895,2-2l0,0C16,8.224,15.776,8,15.5,8H13L12,10.5z" />
  <path d="M13,13h-2V9c0-0.552,0.448-1,1-1h1V13z" />
</svg>
