<svg xmlns="http://www.w3.org/2000/svg" viewBox="0 0 24 24" width="192" height="192" fill="currentColor">
  <path
    d="M19.51 4.257l-.568.568A9.95 9.95 0 0012 2a10.002 10.002 0 00-9.287 6.288C2.193 9.588 3.19 11 4.59 11c.79 0 1.54-.451 1.828-1.186A5.993 5.993 0 0112 6c1.598 0 3.043.632 4.117 1.651l-.86.859c-.55.55-.16 1.49.617 1.49h3.707C20.365 10 21 9.365 21 8.582V4.874c0-.777-.94-1.166-1.49-.617z"
    opacity=".35" />
  <path
    d="M4.418 14h3.707c.777 0 1.167.94.617 1.49L4.49 19.743c-.55.549-1.49.16-1.49-.617v-3.707C3 14.635 3.635 14 4.418 14z" />
  <path
    d="M19.41 13c-.79 0-1.54.451-1.828 1.186a5.993 5.993 0 01-10.756.842c-.36-.615-3.975 1.344-3.015 2.712a10.002 10.002 0 0017.476-2.028c.52-1.3-.477-2.712-1.877-2.712z" />
</svg>
