<svg xmlns="http://www.w3.org/2000/svg" viewBox="0 0 608.98 115.52" fill="#4f62d0"
  style="filter: drop-shadow(0 0 4px rgba(0, 0, 0, 0.2))">
  <path
    d="M525.2 79.91c0 3.08.15 5.79-.09 8.46a3.3 3.3 0 01-1.78 2.42c-10.6 3-21.32 4.57-32.11 1.13-9.74-3.1-14.46-9.33-14.53-21.23-.11-16.84 5.58-31.19 21.17-39.81a32.69 32.69 0 0125.34-2.94c7.57 2.12 12.3 7.17 12.92 14.89.49 6-.41 12.14-.78 18.21-.13 2.27-1.52 2.84-3.71 2.82-12-.1-24-.06-36-.06-4.44 0-5.67 1.46-5 5.84 1.24 7.72 7.05 12.52 15.66 12.71a63.82 63.82 0 009.47-.51c3.02-.39 5.97-1.2 9.44-1.93zm-16.84-25.4h10.85c3.13 0 4.44-1.37 4.44-4.53 0-7.75-6-13.22-13.65-12.3s-12.35 6-15.8 12.42c-1.47 2.75-.55 4.29 2.64 4.37 3.84.11 7.68.04 11.52.04zM229 28.69a2 2 0 011.87 2.86c-3.13 6.59-5.93 12.88-9.26 18.88q-12.84 23.16-26.28 46c-4.55 7.68-10.17 14.63-19.12 17.56-7.13 2.33-14.37 1.73-22.19.16 1.5-3.59 2.64-6.62 4.07-9.51.26-.53 1.74-.89 2.48-.69 12.43 3.38 17.75-2.42 23.41-10.27.63-.87.52-2.64.15-3.8a291.76 291.76 0 01-12-57.76c-.3-2.77.21-3.83 3.3-3.5a29.16 29.16 0 007.17 0c3.19-.46 3.63.91 4 3.42 1.85 13.1 3.87 26.17 6 39.23.2 1.23 1.4 2.31 2.14 3.46.93-.9 2.2-1.64 2.74-2.73 6.34-13 12.67-26 18.77-39.18 1.39-3 2.79-4.79 6.46-4.28a37.11 37.11 0 006.29.15zM136.1 92.14c2-10.21 3.85-19.64 5.55-29.1a111.16 111.16 0 001.79-13.44c.35-6.2-3.24-10.62-9.39-11.21a48.5 48.5 0 00-12.13.72c-1.21.19-2.78 2.12-3.07 3.49-2.41 11.52-4.57 23.09-6.79 34.66-.83 4.33-1.52 8.7-2.5 13a3.09 3.09 0 01-2.26 1.8c-3.59.19-7.2.08-11.36.08.92-5.09 1.74-9.83 2.65-14.55 2.83-14.68 5.76-29.34 8.49-44.05.47-2.52 1.49-3.86 4-4.05 9.33-.71 18.71-2.39 28-1.93 14.58.72 20.1 8 18.1 22.56-1.38 10-3.62 19.83-5.48 29.74-.61 3.23-1.3 6.44-1.81 9.69-.3 1.89-1.07 2.73-3.11 2.63-3.35-.18-6.72-.04-10.68-.04zM587.7 92.13c1.24-6.62 2.48-12.69 3.49-18.8 1.33-8 2.86-16 3.59-24.12.53-5.81-2.64-9.77-8.34-10.57a43.71 43.71 0 00-13.1.55c-1.32.22-2.85 2.8-3.2 4.53q-4.54 22.28-8.6 44.72C561 91.33 560 92.51 557 92.2a90.17 90.17 0 00-9-.07 13.49 13.49 0 010-2.13q5.43-28.71 11-57.39c.19-1 1-2.4 1.69-2.55 11.89-2.52 23.91-4.68 36-1.71q14.07 3.45 12.08 19.85c-1.18 9.77-3.2 19.44-4.89 29.14-.69 3.9-1.68 7.76-2.22 11.68-.35 2.64-1.55 3.34-4 3.17-3.2-.19-6.36-.06-9.96-.06zM294.07 7.25c-2.26 11.82-4.38 22.93-6.52 34-2.23 11.57-4.49 23.14-6.71 34.71-.65 3.39.32 4.46 4 4.46h34.67c-.62 3.67-1.07 6.89-1.8 10a2.76 2.76 0 01-2.1 1.58c-17 0-34 0-51-.07-.09 0-.18-.13-.63-.5.76-4.17 1.53-8.59 2.38-13 4.38-22.71 8.83-45.39 13.1-68.11.49-2.61 1.51-3.36 4-3.22 3.34.29 6.73.15 10.61.15zM416.11 29.21c-1.44 3.63-2.52 6.71-4 9.59-.27.53-2.17.64-3.14.34-5.6-1.68-11.25-3-17-1.15a14.82 14.82 0 00-5.94 3.55c-2.95 3-2.76 6.16.59 8.76 2.45 1.9 5.42 3.17 8.22 4.6 3.32 1.7 6.82 3.07 10 4.94 5 2.9 6.89 7.65 5.81 13.36-2.35 12.4-7.23 17.29-20 19.63a56.09 56.09 0 01-29.87-2.31c1.46-3.45 2.71-6.68 4.27-9.76.24-.48 2-.6 2.82-.31a41.47 41.47 0 0021.07 1.93 12.37 12.37 0 005.84-3.06c3.12-2.88 3-6.38-.29-9.06a51 51 0 00-8.11-4.82c-1.69-.9-3.57-1.43-5.31-2.23-13-6-14.73-21.41-3.21-30.25 8.19-6.27 17.7-7 27.5-5.79 3.46.41 6.75 1.26 10.75 2.04zM452.06 9.05c-1 5.36-1.94 10.11-2.88 14.85-.71 3.66.12 4.71 3.94 4.72h18.9c-.68 3.38-1.1 6.37-2 9.23-.22.7-1.92 1.31-3 1.33-5.55.13-11.11.17-16.66 0-2.95-.09-4.45 1.15-5 3.91-1.64 8.69-3.32 17.36-4.9 26.06a22.67 22.67 0 00-.2 5.08c.23 4.93 3.58 8.36 8.52 8.24 4.47-.11 8.92-.77 13.86-1.23 0 2.51.16 5.21-.1 7.86a3.37 3.37 0 01-2 2.19 41.78 41.78 0 01-19.75 2.24c-11.8-1.52-15.14-6.76-14.34-18.76.44-6.41 2.07-12.74 3.28-19.08 2.62-13.8 5.38-27.58 7.93-41.39.45-2.42 1.32-3.48 3.86-3.65 3.35-.22 6.56-.96 10.54-1.6zM330.91 92.14c1-5.68 1.89-10.89 2.89-16.07 2.88-14.78 5.87-29.53 8.66-44.31.48-2.55 1.49-3.39 4-3.19 3.12.24 6.28.05 9.86.05-.39 2.14-.67 3.78-1 5.42-3.54 18.35-7.12 36.68-10.57 55.05-.44 2.37-1.29 3.26-3.74 3.1-3.19-.19-6.45-.05-10.1-.05zM355.23 0c3.07-.09 5.61.64 6.62 4 1.09 3.66-.6 8.75-3.7 10.89a6.45 6.45 0 01-.87.52c-3.55 1.74-7.22 2.33-10.62-.06-2.56-1.81-2.44-4.78-1.8-7.45a9.57 9.57 0 018-7.75 18.46 18.46 0 012.37-.15z" />
  <path
    d="M0 92.17c8-14 15.63-27.63 23.44-41.1 8.1-14 16.65-27.73 25.52-41.26 1.26-1.92 2.55-2.81 4.93-2.64a53.35 53.35 0 008.48 0c2.24-.16 3.2.64 3.76 2.79q6.2 23.49 10.74 47.33C79 68.18 80.79 79.11 82.83 90c.31 1.69 0 2.26-1.76 2.21-3.74-.09-7.49-.17-11.22 0-2 .1-2.47-.89-2.75-2.51-.83-4.9-1.79-9.78-2.58-14.69-.4-2.51-1.79-3.36-4.21-3.35-10.19.06-20.39.1-30.59 0a4.93 4.93 0 00-4.89 2.87C22 79.7 19.09 84.8 16.34 90a3.5 3.5 0 01-3.7 2.22c-3.95-.15-7.91-.05-12.64-.05zm47.58-31.06c3.84 0 7.69.05 11.53 0 2.42 0 3.83-1 3.27-3.8q-3-15.1-5.91-30.25c-.26-1.35-.8-2.55-2-2.9-1.5-.43-2 1.11-2.63 2.11q-9.11 15.47-18.11 31c-1.4 2.41-.54 3.84 2.31 3.88 3.85 0 7.69-.04 11.54-.04z" />
</svg>
